<?xml version="1.0" standalone="no"?>
<!DOCTYPE svg PUBLIC "-//W3C//DTD SVG 20010904//EN"
 "http://www.w3.org/TR/2001/REC-SVG-20010904/DTD/svg10.dtd">
<svg version="1.0" xmlns="http://www.w3.org/2000/svg"
 width="1638.000000pt" height="746.000000pt" viewBox="0 0 1638.000000 746.000000"
 preserveAspectRatio="xMidYMid meet">

<g transform="translate(0.000000,746.000000) scale(0.100000,-0.100000)"
fill="#000000" stroke="none">
<path d="M2159 6626 c-3 -3 -51 -10 -106 -16 -411 -42 -794 -194 -1142 -454
-140 -104 -362 -328 -456 -461 -11 -16 -30 -41 -42 -56 -13 -15 -23 -29 -23
-33 0 -3 -25 -47 -56 -98 -210 -345 -329 -771 -329 -1178 0 -340 86 -708 236
-1011 26 -53 64 -122 83 -152 20 -31 36 -58 36 -61 0 -7 58 -94 84 -127 12
-14 32 -41 46 -59 49 -67 188 -216 271 -291 131 -119 355 -279 389 -279 7 0
10 113 8 390 -2 257 0 389 7 386 6 -2 9 34 9 98 -1 60 1 85 5 61 l6 -40 1097
-3 1097 -2 4 47 c2 27 4 -180 5 -459 2 -466 5 -533 26 -499 3 5 38 28 78 51
286 168 566 450 753 759 170 282 263 550 315 911 60 409 -24 903 -217 1293
-128 256 -323 516 -518 688 -377 333 -797 521 -1290 580 -107 13 -368 23 -376
15z m391 -1170 c219 -59 374 -143 524 -286 208 -197 331 -449 355 -728 11
-123 -1 -315 -23 -379 l-13 -38 -129 3 c-71 2 -147 5 -169 7 -22 2 -76 6 -120
10 -95 7 -231 28 -370 57 -55 11 -120 24 -145 29 -25 5 -92 20 -150 34 -246
57 -270 59 -545 59 -143 0 -296 -6 -340 -12 -44 -6 -116 -16 -159 -22 -44 -6
-87 -15 -96 -20 -16 -9 -18 -1 -22 83 -11 225 31 429 124 605 174 328 469 546
828 612 79 15 377 5 450 -14z"/>
<path d="M13152 4072 c-67 -258 -122 -471 -122 -475 0 -4 26 -7 58 -7 l57 0
74 283 c41 155 76 286 79 291 2 4 60 -124 128 -285 67 -162 126 -300 131 -306
5 -8 54 98 133 287 69 165 127 300 130 300 3 0 39 -128 80 -285 l74 -285 58 0
c32 0 58 3 58 7 0 8 -241 937 -244 940 -1 2 -65 -148 -141 -332 -77 -184 -143
-331 -147 -327 -4 4 -69 153 -144 332 -75 179 -137 326 -138 327 -2 2 -57
-208 -124 -465z"/>
<path d="M9289 4512 c-184 -50 -336 -218 -357 -395 -24 -193 55 -362 219 -471
140 -92 324 -109 496 -45 l53 20 0 71 c0 52 -3 69 -12 65 -102 -45 -150 -59
-213 -64 -257 -20 -453 176 -415 413 25 152 147 268 310 293 89 14 185 -2 313
-54 16 -7 18 -2 15 61 l-3 69 -70 23 c-97 32 -246 39 -336 14z"/>
<path d="M10211 4519 c-118 -23 -248 -113 -317 -219 -127 -196 -91 -438 89
-608 267 -250 730 -119 822 233 43 169 -3 334 -130 460 -120 119 -290 168
-464 134z m193 -124 c120 -25 225 -113 267 -224 29 -78 24 -193 -12 -271 -33
-70 -108 -145 -179 -179 -48 -23 -68 -26 -155 -26 -83 0 -108 4 -150 23 -107
49 -178 121 -211 213 -23 66 -20 172 7 244 40 108 152 201 269 224 65 13 87
12 164 -4z"/>
<path d="M10980 4063 l0 -473 60 0 60 0 0 324 0 325 338 -345 337 -345 3 403
c2 222 0 436 -3 476 l-7 72 -59 0 -59 0 0 -326 0 -326 -222 229 c-122 125
-273 280 -335 343 l-113 115 0 -472z"/>
<path d="M12340 4524 c-132 -26 -246 -98 -326 -207 -56 -76 -84 -164 -84 -267
0 -437 544 -653 856 -340 211 212 184 552 -58 723 -90 64 -164 89 -273 92 -49
2 -101 1 -115 -1z m155 -125 c192 -35 315 -188 303 -374 -7 -97 -37 -162 -108
-229 -84 -80 -133 -100 -250 -100 -127 -1 -200 26 -277 100 -76 75 -106 144
-106 248 -1 71 3 90 29 146 52 110 139 181 254 206 71 16 85 16 155 3z"/>
<path d="M5110 4046 l0 -456 83 0 c232 1 386 64 433 177 17 39 18 131 3 170
-15 42 -84 107 -139 133 l-49 23 37 29 c53 42 84 91 89 141 7 64 -12 111 -63
156 -65 57 -117 73 -266 78 l-128 5 0 -456z m260 329 c65 -34 89 -109 55 -174
-17 -34 -83 -68 -148 -77 l-47 -7 0 143 0 143 56 -7 c31 -3 68 -13 84 -21z
m56 -389 c129 -59 122 -197 -14 -258 -23 -11 -74 -22 -112 -25 l-70 -6 0 163
0 163 72 -7 c42 -4 94 -17 124 -30z"/>
<path d="M5840 4045 l0 -455 210 0 210 0 0 60 0 60 -150 0 -150 0 0 395 0 395
-60 0 -60 0 0 -455z"/>
<path d="M6385 4218 c7 -349 9 -382 35 -452 24 -63 87 -134 147 -165 95 -48
250 -48 345 0 47 24 111 86 134 131 39 76 44 123 44 451 l0 317 -60 0 -60 0 0
-313 c0 -359 -5 -393 -67 -447 -51 -45 -92 -60 -165 -60 -110 1 -193 60 -217
156 -7 26 -11 163 -11 353 l0 311 -65 0 -65 0 5 -282z"/>
<path d="M7270 4045 l0 -455 250 0 250 0 0 60 0 60 -190 0 -190 0 0 160 0 160
190 0 190 0 0 60 0 60 -190 0 -190 0 0 115 0 115 190 0 190 0 0 60 0 60 -250
0 -250 0 0 -455z"/>
<path d="M8320 4045 l0 -455 250 0 250 0 0 60 0 60 -190 0 -190 0 0 160 0 160
190 0 190 0 0 60 0 60 -190 0 -190 0 0 115 0 115 190 0 190 0 0 60 0 60 -250
0 -250 0 0 -455z"/>
<path d="M14173 4493 c3 -5 70 -117 151 -249 l146 -242 0 -206 0 -206 60 0 60
0 0 213 0 213 145 238 c80 131 145 240 145 242 0 3 -30 4 -66 2 l-66 -3 -103
-168 c-57 -93 -107 -173 -112 -178 -6 -6 -51 59 -119 171 l-109 180 -68 0
c-38 0 -66 -3 -64 -7z"/>
</g>
</svg>
